<svg height="2174" width="720" xmlns="http://www.w3.org/2000/svg">
<rect height="2174" fill="#555" width="720"></rect>
<text fill="#7f7" font-family="Courier New" font-size="12" xml:space="preserve">
<tspan x="10" y="26"></tspan>
<tspan x="10" y="42">&gt; npmdoc-oauth@0.0.1 test /home/travis/build/npmdoc/node-npmdoc-oauth</tspan>
<tspan x="10" y="58">&gt; (set -e; export PORT=$(utility2 shServerPortRandom); utility2 test test.js)</tspan>
<tspan x="10" y="74"></tspan>
<tspan x="10" y="90"></tspan>
<tspan x="10" y="106">[MODE_BUILD=npmTest] - 2017-04-02T06:37:31Z - npm-testing /home/travis/build/npmdoc/node-npmdoc-\</tspan>
<tspan x="10" y="122">oauth</tspan>
<tspan x="10" y="138"></tspan>
<tspan x="10" y="154"></tspan>
<tspan x="10" y="170">covering $ /home/travis/.nvm/versions/node/v6.10.1/bin/node /home/travis/build/npmdoc/node-npmdo\</tspan>
<tspan x="10" y="186">c-oauth/test.js</tspan>
<tspan x="10" y="202">merging file:///home/travis/build/npmdoc/node-npmdoc-oauth/tmp/build/test-report.json to test-re\</tspan>
<tspan x="10" y="218">port</tspan>
<tspan x="10" y="234">&gt; server listening on http-port 33487</tspan>
<tspan x="10" y="250">created apidoc file:///home/travis/build/npmdoc/node-npmdoc-oauth/tmp/build/apidoc.html</tspan>
<tspan x="10" y="266"></tspan>
<tspan x="10" y="282"></tspan>
<tspan x="10" y="298">browserTest - created electron entry-page /home/travis/build/npmdoc/node-npmdoc-oauth/tmp/electr\</tspan>
<tspan x="10" y="314">on.15b2d620e970.fc8dc1c9da6d7.html</tspan>
<tspan x="10" y="330"></tspan>
<tspan x="10" y="346">[node test-case 1 of 6 passed] - testCase_buildLib_default</tspan>
<tspan x="10" y="362">[node test-case 2 of 6 passed] - testCase_buildReadme_default</tspan>
<tspan x="10" y="378">[node test-case 3 of 6 passed] - testCase_buildTest_default</tspan>
<tspan x="10" y="394"></tspan>
<tspan x="10" y="410">browserTest - created electron entry-page /home/travis/build/npmdoc/node-npmdoc-oauth/tmp/electr\</tspan>
<tspan x="10" y="426">on.15b2d620ef40.028b2507beef7.html</tspan>
<tspan x="10" y="442"></tspan>
<tspan x="10" y="458">Xlib:  extension "RANDR" missing on display ":99.0".</tspan>
<tspan x="10" y="474">Xlib:  extension "RANDR" missing on display ":99.0".</tspan>
<tspan x="10" y="490">oauth_token :requestkey</tspan>
<tspan x="10" y="506">oauth_token_secret :requestsecret</tspan>
<tspan x="10" y="522">requestoken results :{}</tspan>
<tspan x="10" y="538">Requesting access token</tspan>
<tspan x="10" y="554">(node:4804) DeprecationWarning: util.puts is deprecated. Use console.log instead.</tspan>
<tspan x="10" y="570">oauth_access_token :accesskey</tspan>
<tspan x="10" y="586">oauth_token_secret :accesssecret</tspan>
<tspan x="10" y="602">accesstoken results :{}</tspan>
<tspan x="10" y="618">Requesting access token</tspan>
<tspan x="10" y="634">foo=bar&amp;too=roo</tspan>
<tspan x="10" y="650">merging file:///home/travis/build/npmdoc/node-npmdoc-oauth/tmp/build/test-report.json to test-re\</tspan>
<tspan x="10" y="666">port</tspan>
<tspan x="10" y="682">Xlib:  extension "RANDR" missing on display ":99.0".</tspan>
<tspan x="10" y="698">merging file:///home/travis/build/npmdoc/node-npmdoc-oauth/tmp/build/test-report.json to test-re\</tspan>
<tspan x="10" y="714">port</tspan>
<tspan x="10" y="730">[4823:0402/063733:WARNING:audio_manager.cc(314)] Multiple instances of AudioManager detected</tspan>
<tspan x="10" y="746">[4823:0402/063733:WARNING:audio_manager.cc(275)] Multiple instances of AudioManager detected</tspan>
<tspan x="10" y="762">[4863:0402/063733:ERROR:sandbox_linux.cc(343)] InitializeSandbox() called with multiple threads \</tspan>
<tspan x="10" y="778">in process gpu-process. </tspan>
<tspan x="10" y="794">Xlib:  extension "RANDR" missing on display ":99.0".</tspan>
<tspan x="10" y="810">[4834:0402/063733:WARNING:audio_manager.cc(314)] Multiple instances of AudioManager detected</tspan>
<tspan x="10" y="826">[4834:0402/063733:WARNING:audio_manager.cc(275)] Multiple instances of AudioManager detected</tspan>
<tspan x="10" y="842">&gt; [4885:0402/063733:ERROR:sandbox_linux.cc(343)] InitializeSandbox() called with multiple thread\</tspan>
<tspan x="10" y="858">s in process gpu-process. </tspan>
<tspan x="10" y="874">server listening on http-port 37415</tspan>
<tspan x="10" y="890">[4823:0402/063733:ERROR:browser_gpu_channel_host_factory.cc(131)] Failed to create channel.</tspan>
<tspan x="10" y="906">[4834:0402/063733:ERROR:browser_gpu_channel_host_factory.cc(131)] Failed to create channel.</tspan>
<tspan x="10" y="922"></tspan>
<tspan x="10" y="938">browserTest - opened url /home/travis/build/npmdoc/node-npmdoc-oauth/tmp/build/apidoc.html</tspan>
<tspan x="10" y="954"></tspan>
<tspan x="10" y="970"></tspan>
<tspan x="10" y="986">browserTest - opened url http://127.0.0.1:33487?modeTest=1</tspan>
<tspan x="10" y="1002"></tspan>
<tspan x="10" y="1018">[4834:0402/063735:INFO:CONSOLE(245)] "----------|-----------|-----------|-----------|-----------\</tspan>
<tspan x="10" y="1034">|</tspan>
<tspan x="10" y="1050">File      |   % Stmts |% Branches |   % Funcs |   % Lines |</tspan>
<tspan x="10" y="1066">----------|-----------|-----------|-----------|-----------|</tspan>
<tspan x="10" y="1082">----------|-----------|-----------|-----------|-----------|</tspan>
<tspan x="10" y="1098">All files |       100 |       100 |       100 |       100 |</tspan>
<tspan x="10" y="1114">----------|-----------|-----------|-----------|-----------|</tspan>
<tspan x="10" y="1130">", source: file:///home/travis/build/npmdoc/node-npmdoc-oauth/tmp/electron.15b2d620ef40.028b2507\</tspan>
<tspan x="10" y="1146">beef7.html (245)</tspan>
<tspan x="10" y="1162">[4834:0402/063735:INFO:CONSOLE(245)] "created coverage file:///tmp/build/coverage.html/index.htm\</tspan>
<tspan x="10" y="1178">l", source: file:///home/travis/build/npmdoc/node-npmdoc-oauth/tmp/electron.15b2d620ef40.028b250\</tspan>
<tspan x="10" y="1194">7beef7.html (245)</tspan>
<tspan x="10" y="1210">[node test-case 4 of 6 passed] - testCase_buildApp_default</tspan>
<tspan x="10" y="1226"></tspan>
<tspan x="10" y="1242">browserTest - created screen-capture file:///home/travis/build/npmdoc/node-npmdoc-oauth/tmp/buil\</tspan>
<tspan x="10" y="1258">d/screen-capture.npmTest.browser._2Fhome_2Ftravis_2Fbuild_2Fnpmdoc_2Fnode-npmdoc-oauth_2Ftmp_2Fb\</tspan>
<tspan x="10" y="1274">uild_2Fapidoc.html.png</tspan>
<tspan x="10" y="1290"></tspan>
<tspan x="10" y="1306">browserTest - created screen-capture file:///home/travis/build/npmdoc/node-npmdoc-oauth/tmp/buil\</tspan>
<tspan x="10" y="1322">d/screen-capture.npmTest.browser._2Fhome_2Ftravis_2Fbuild_2Fnpmdoc_2Fnode-npmdoc-oauth_2Ftmp_2Fb\</tspan>
<tspan x="10" y="1338">uild_2Fapidoc.html.html</tspan>
<tspan x="10" y="1354"></tspan>
<tspan x="10" y="1370">browserTest - exit-code 0 - /home/travis/build/npmdoc/node-npmdoc-oauth/tmp/build/apidoc.html</tspan>
<tspan x="10" y="1386"></tspan>
<tspan x="10" y="1402">[node test-case 5 of 6 passed] - testCase_buildApidoc_default</tspan>
<tspan x="10" y="1418"></tspan>
<tspan x="10" y="1434">browserTest - created screen-capture file:///home/travis/build/npmdoc/node-npmdoc-oauth/tmp/buil\</tspan>
<tspan x="10" y="1450">d/screen-capture.npmTest.browser..png</tspan>
<tspan x="10" y="1466"></tspan>
<tspan x="10" y="1482">browserTest - created screen-capture file:///home/travis/build/npmdoc/node-npmdoc-oauth/tmp/buil\</tspan>
<tspan x="10" y="1498">d/screen-capture.npmTest.browser..html</tspan>
<tspan x="10" y="1514"></tspan>
<tspan x="10" y="1530">browserTest - exit-code 0 - http://127.0.0.1:33487?modeTest=1</tspan>
<tspan x="10" y="1546"></tspan>
<tspan x="10" y="1562"></tspan>
<tspan x="10" y="1578">browserTest - merged coverage from /home/travis/build/npmdoc/node-npmdoc-oauth/tmp/coverage.npmT\</tspan>
<tspan x="10" y="1594">est.browser.%2F.json</tspan>
<tspan x="10" y="1610"></tspan>
<tspan x="10" y="1626"></tspan>
<tspan x="10" y="1642">browserTest - merging test-report from /home/travis/build/npmdoc/node-npmdoc-oauth/tmp/test-repo\</tspan>
<tspan x="10" y="1658">rt.npmTest.browser.%2F.json</tspan>
<tspan x="10" y="1674"></tspan>
<tspan x="10" y="1690">[node test-case 6 of 6 passed] - testCase_webpage_default</tspan>
<tspan x="10" y="1706">--------------------------|-----------|-----------|-----------|-----------|</tspan>
<tspan x="10" y="1722">File                      |   % Stmts |% Branches |   % Funcs |   % Lines |</tspan>
<tspan x="10" y="1738">--------------------------|-----------|-----------|-----------|-----------|</tspan>
<tspan x="10" y="1754">   node-npmdoc-oauth/     |       100 |       100 |       100 |       100 |</tspan>
<tspan x="10" y="1770">      example.js          |       100 |       100 |       100 |       100 |</tspan>
<tspan x="10" y="1786">      lib.npmdoc_oauth.js |       100 |       100 |       100 |       100 |</tspan>
<tspan x="10" y="1802">      test.js             |       100 |       100 |       100 |       100 |</tspan>
<tspan x="10" y="1818">--------------------------|-----------|-----------|-----------|-----------|</tspan>
<tspan x="10" y="1834">All files                 |       100 |       100 |       100 |       100 |</tspan>
<tspan x="10" y="1850">--------------------------|-----------|-----------|-----------|-----------|</tspan>
<tspan x="10" y="1866"></tspan>
<tspan x="10" y="1882">created coverage file:///home/travis/build/npmdoc/node-npmdoc-oauth/tmp/build/coverage.html/inde\</tspan>
<tspan x="10" y="1898">x.html</tspan>
<tspan x="10" y="1914">merging file:///home/travis/build/npmdoc/node-npmdoc-oauth/tmp/build/test-report.json to test-re\</tspan>
<tspan x="10" y="1930">port</tspan>
<tspan x="10" y="1946"></tspan>
<tspan x="10" y="1962">-------------------------------------------------------</tspan>
<tspan x="10" y="1978">| test-report - buildNpmdoc - node - linux v6.10.1 - 2017-04-02T06:36:56.399Z</tspan>
<tspan x="10" y="1994">|   46537 ms            0 failed        6 passed      |</tspan>
<tspan x="10" y="2010">-------------------------------------------------------</tspan>
<tspan x="10" y="2026"></tspan>
<tspan x="10" y="2042">created test-report file:///home/travis/build/npmdoc/node-npmdoc-oauth/tmp/build/test-report.htm\</tspan>
<tspan x="10" y="2058">l</tspan>
<tspan x="10" y="2074"></tspan>
<tspan x="10" y="2090"></tspan>
<tspan x="10" y="2106">npmTest - 0 failed tests</tspan>
<tspan x="10" y="2122"></tspan>
<tspan x="10" y="2138"></tspan>
<tspan x="10" y="2154">[MODE_BUILD=npmTest] - 2017-04-02T06:37:45Z - EXIT_CODE - 0</tspan>
</text>
</svg>
